<svg width="800" height="800" viewBox="0 0 800 800" fill="none" xmlns="http://www.w3.org/2000/svg">
<g clip-path="url(#clip0_412_46588)">
<g clip-path="url(#clip1_412_46588)">
<rect width="800" height="800" fill="#FFBE3C"/>
<path d="M664.86 335.432C652.196 317.431 634.567 303.943 613.913 296.455C600.626 291.49 586.696 289.038 572.524 289.189C547.819 289.339 521.647 297.088 496.852 311.602L276.471 440.582C242.178 460.653 216.669 457.95 201.242 452.12C189.925 448.08 180.276 440.763 173.331 430.964C166.386 421.164 162.667 409.636 162.597 397.626C162.526 385.615 166.094 374.037 172.929 364.157C179.763 354.277 189.322 346.849 200.669 342.638C215.956 336.658 241.414 333.663 275.928 353.292L300.754 367.494C299.306 372.489 298.231 377.605 297.557 382.74L296.271 392.449L484.259 283.912L484.641 283.671C489.666 280.113 493.154 274.826 494.45 268.806C495.747 262.775 494.742 256.534 491.626 251.217C488.51 245.9 483.545 241.981 477.646 240.171C471.756 238.362 465.444 238.835 459.886 241.488L459.705 241.569L398.848 276.907L336.866 241.448L336.514 241.267C330.896 238.644 324.554 238.242 318.644 240.131C312.734 242.021 307.809 246.031 304.754 251.428C301.698 256.825 300.804 263.117 302.231 269.158C303.658 275.188 307.276 280.424 312.422 283.882L350.243 305.31L345.047 308.375L344.936 308.446C337.579 313.119 330.845 318.687 324.885 325.019L300.06 310.717C260.048 287.932 218.368 283.048 182.718 296.968C167.853 302.707 154.194 311.833 143.199 323.361C132.204 334.889 123.731 348.97 118.685 364.127C110.152 390.701 112.183 419.144 124.424 444.231C136.666 469.317 157.833 488.433 184.005 498.052C197.302 503.017 211.262 505.469 225.424 505.319C250.098 505.168 276.27 497.409 301.095 482.875L301.477 482.634L521.366 353.895C555.639 333.844 581.158 336.537 596.616 342.357C607.943 346.367 617.591 353.664 624.536 363.473C631.481 373.283 635.15 384.811 635.17 396.832C635.19 403.163 634.225 409.435 632.326 415.395C629.542 423.637 624.888 431.305 618.858 437.567C612.827 443.829 605.35 448.784 597.188 451.889C581.901 457.849 556.423 460.834 521.899 441.205L497.074 427.004C498.652 421.566 499.787 415.978 500.451 410.37L501.596 400.731L355.158 486.464V543.139L452.75 486.152L452.911 486.051C460.248 481.378 466.972 475.81 472.922 469.478L497.767 483.79C537.95 506.495 579.63 511.379 615.059 497.549C635.662 489.8 653.131 476.111 665.573 457.96C678.016 439.818 684.489 418.591 684.288 396.59H684.318C684.247 374.579 677.524 353.433 664.86 335.422V335.432Z" fill="white"/>
</g>
</g>
<defs>
<clipPath id="clip0_412_46588">
<rect width="800" height="800" fill="white"/>
</clipPath>
<clipPath id="clip1_412_46588">
<rect width="800" height="800" fill="white"/>
</clipPath>
</defs>
</svg>
